<svg xmlns="http://www.w3.org/2000/svg" xmlns:xlink="http://www.w3.org/1999/xlink" width="40" zoomAndPan="magnify" viewBox="0 0 30 30.000001" height="40" preserveAspectRatio="xMidYMid meet" version="1.0"><defs><clipPath id="7d9be82b8a"><path d="M 0.484375 0 L 29.515625 0 L 29.515625 29.03125 L 0.484375 29.03125 Z M 0.484375 0 " clip-rule="nonzero"/></clipPath><clipPath id="601f6c3bec"><path d="M 0.484375 0 L 29.515625 0 L 29.515625 29.03125 L 0.484375 29.03125 Z M 0.484375 0 " clip-rule="nonzero"/></clipPath></defs><g clip-path="url(#7d9be82b8a)"><path fill="#ab9c65" d="M 15 27.957031 C 7.574219 27.957031 1.558594 21.941406 1.558594 14.515625 C 1.558594 7.089844 7.574219 1.074219 15 1.074219 C 22.425781 1.074219 28.441406 7.089844 28.441406 14.515625 C 28.441406 21.941406 22.425781 27.957031 15 27.957031 Z M 15 0 C 6.984375 0 0.484375 6.5 0.484375 14.515625 C 0.484375 22.535156 6.984375 29.03125 15 29.03125 C 23.015625 29.03125 29.515625 22.535156 29.515625 14.515625 C 29.515625 6.5 23.015625 0 15 0 " fill-opacity="1" fill-rule="nonzero"/></g><path fill="#ab9c65" d="M 15.09375 14.5625 C 15.042969 14.515625 14.976562 14.484375 14.90625 14.46875 C 14.976562 14.484375 15.042969 14.515625 15.09375 14.5625 " fill-opacity="1" fill-rule="nonzero"/><path fill="#ab9c65" d="M 9.378906 19.75 C 9.378906 19.855469 9.378906 19.941406 9.378906 20.042969 C 9.738281 20.042969 10.09375 20.042969 10.449219 20.039062 C 10.550781 20.039062 10.601562 19.984375 10.636719 19.921875 C 10.859375 19.546875 11.085938 19.171875 11.308594 18.796875 C 11.328125 18.761719 11.347656 18.730469 11.371094 18.691406 C 11.402344 18.710938 11.40625 18.730469 11.414062 18.753906 C 11.667969 19.457031 11.921875 20.160156 12.175781 20.863281 C 12.207031 20.941406 12.242188 21.011719 12.378906 21.019531 C 12.515625 21.019531 12.566406 20.957031 12.605469 20.878906 C 12.894531 20.332031 13.183594 19.789062 13.472656 19.246094 C 13.484375 19.226562 13.492188 19.210938 13.511719 19.179688 C 13.597656 19.324219 13.675781 19.460938 13.75 19.59375 C 13.820312 19.71875 13.886719 19.84375 13.957031 19.96875 C 13.992188 20.03125 14.050781 20.074219 14.144531 20.074219 C 14.496094 20.078125 14.847656 20.074219 15.207031 20.074219 C 15.207031 19.980469 15.207031 19.886719 15.207031 19.789062 C 14.933594 19.789062 14.667969 19.785156 14.398438 19.789062 C 14.3125 19.789062 14.277344 19.769531 14.25 19.714844 C 14.074219 19.390625 13.890625 19.070312 13.710938 18.75 C 13.675781 18.683594 13.617188 18.636719 13.511719 18.632812 C 13.398438 18.632812 13.339844 18.683594 13.304688 18.753906 C 13.300781 18.761719 13.300781 18.765625 13.296875 18.769531 C 13.027344 19.273438 12.761719 19.777344 12.496094 20.277344 C 12.476562 20.3125 12.457031 20.34375 12.433594 20.382812 C 12.382812 20.320312 12.375 20.257812 12.351562 20.199219 C 12.113281 19.542969 11.875 18.886719 11.636719 18.226562 C 11.613281 18.152344 11.570312 18.089844 11.445312 18.085938 C 11.328125 18.078125 11.265625 18.128906 11.222656 18.203125 C 10.933594 18.6875 10.640625 19.171875 10.355469 19.660156 C 10.316406 19.726562 10.273438 19.753906 10.167969 19.753906 C 9.90625 19.746094 9.648438 19.75 9.378906 19.75 " fill-opacity="1" fill-rule="nonzero"/><path fill="#ab9c65" d="M 22.046875 19.804688 C 22.027344 19.832031 22.011719 19.863281 21.996094 19.894531 C 21.984375 19.914062 21.976562 19.929688 21.960938 19.949219 L 19.648438 23.097656 C 19.589844 23.179688 19.5 23.234375 19.398438 23.242188 C 19.382812 23.246094 19.367188 23.246094 19.351562 23.246094 C 19.269531 23.242188 19.1875 23.214844 19.125 23.160156 L 17.441406 21.703125 C 17.425781 21.691406 17.414062 21.679688 17.402344 21.664062 C 17.378906 21.636719 17.355469 21.613281 17.332031 21.589844 C 17.21875 21.503906 17.148438 21.367188 17.152344 21.214844 C 17.160156 20.988281 17.320312 20.804688 17.535156 20.765625 C 17.644531 20.726562 17.769531 20.746094 17.867188 20.824219 C 17.910156 20.851562 17.945312 20.882812 17.980469 20.917969 L 19.105469 21.890625 C 19.191406 21.96875 19.324219 21.953125 19.394531 21.859375 L 21.21875 19.375 C 21.230469 19.359375 21.242188 19.335938 21.253906 19.316406 C 21.289062 19.242188 21.34375 19.179688 21.410156 19.132812 C 21.480469 19.070312 21.574219 19.042969 21.667969 19.050781 C 21.675781 19.050781 21.679688 19.050781 21.6875 19.050781 C 21.945312 19.058594 22.152344 19.273438 22.144531 19.53125 C 22.140625 19.632812 22.105469 19.726562 22.046875 19.804688 Z M 21.148438 17.871094 C 20.78125 17.699219 20.378906 17.585938 19.957031 17.546875 C 19.847656 17.539062 19.738281 17.53125 19.628906 17.53125 C 17.644531 17.53125 16.039062 19.140625 16.039062 21.128906 C 16.039062 21.488281 16.089844 21.835938 16.191406 22.164062 C 16.320312 22.605469 16.539062 23.011719 16.816406 23.363281 C 17.476562 24.1875 18.492188 24.71875 19.628906 24.71875 C 21.613281 24.71875 23.222656 23.109375 23.222656 21.128906 C 23.222656 19.683594 22.371094 18.441406 21.148438 17.871094 " fill-opacity="1" fill-rule="nonzero"/><path fill="#ab9c65" d="M 19.65625 7.792969 C 19.820312 7.792969 19.957031 7.925781 19.957031 8.09375 L 19.957031 17.109375 C 20.378906 17.144531 20.78125 17.222656 21.148438 17.394531 L 21.148438 7.195312 C 21.148438 6.863281 20.878906 6.597656 20.550781 6.597656 L 18.199219 6.597656 L 18.199219 7.792969 L 19.65625 7.792969 " fill-opacity="1" fill-rule="nonzero"/><path fill="#ab9c65" d="M 8.277344 22.164062 C 8.113281 22.164062 7.976562 22.03125 7.976562 21.863281 L 7.976562 8.09375 C 7.976562 7.925781 8.113281 7.792969 8.277344 7.792969 L 9.726562 7.792969 L 9.726562 6.597656 L 7.375 6.597656 C 7.042969 6.597656 6.777344 6.863281 6.777344 7.195312 L 6.777344 22.761719 C 6.777344 23.09375 7.042969 23.363281 7.375 23.363281 L 16.308594 23.363281 C 16.027344 23.011719 15.882812 22.605469 15.75 22.164062 L 8.277344 22.164062 " fill-opacity="1" fill-rule="nonzero"/><path fill="#ab9c65" d="M 13.957031 5.164062 C 14.382812 5.164062 14.726562 5.5 14.726562 5.921875 C 14.726562 5.945312 14.726562 5.972656 14.722656 5.996094 C 14.683594 6.378906 14.355469 6.6875 13.964844 6.683594 C 13.570312 6.683594 13.246094 6.382812 13.210938 5.996094 C 13.207031 5.96875 13.207031 5.945312 13.207031 5.917969 C 13.207031 5.507812 13.546875 5.164062 13.957031 5.164062 Z M 10.167969 7.792969 L 10.167969 8.449219 L 17.757812 8.449219 L 17.757812 7.792969 C 17.757812 7.394531 17.757812 6.996094 17.757812 6.597656 L 17.757812 5.917969 L 15.746094 5.917969 C 15.742188 5.851562 15.742188 5.800781 15.738281 5.753906 C 15.660156 5.042969 15.210938 4.472656 14.628906 4.367188 C 14.230469 4.292969 13.832031 4.304688 13.429688 4.347656 C 12.988281 4.394531 12.675781 4.628906 12.449219 4.996094 C 12.277344 5.277344 12.203125 5.585938 12.179688 5.929688 L 10.167969 5.929688 L 10.167969 6.597656 C 10.167969 6.996094 10.167969 7.394531 10.167969 7.792969 " fill-opacity="1" fill-rule="nonzero"/><path fill="#ab9c65" d="M 9.308594 10.148438 L 10.601562 10.148438 L 10.601562 11.441406 L 9.308594 11.441406 L 9.308594 10.148438 " fill-opacity="1" fill-rule="nonzero"/><path fill="#ab9c65" d="M 11.046875 10.316406 L 14.910156 10.316406 L 14.910156 10.632812 L 11.046875 10.632812 L 11.046875 10.316406 " fill-opacity="1" fill-rule="nonzero"/><path fill="#ab9c65" d="M 11.046875 10.957031 L 16.230469 10.957031 L 16.230469 11.273438 L 11.046875 11.273438 L 11.046875 10.957031 " fill-opacity="1" fill-rule="nonzero"/><path fill="#ab9c65" d="M 15.339844 10.316406 L 18.644531 10.316406 L 18.644531 10.632812 L 15.339844 10.632812 L 15.339844 10.316406 " fill-opacity="1" fill-rule="nonzero"/><path fill="#ab9c65" d="M 9.308594 12.859375 L 10.601562 12.859375 L 10.601562 14.15625 L 9.308594 14.15625 L 9.308594 12.859375 " fill-opacity="1" fill-rule="nonzero"/><path fill="#ab9c65" d="M 11.046875 13.027344 L 14.910156 13.027344 L 14.910156 13.34375 L 11.046875 13.34375 L 11.046875 13.027344 " fill-opacity="1" fill-rule="nonzero"/><path fill="#ab9c65" d="M 11.046875 13.671875 L 16.230469 13.671875 L 16.230469 13.988281 L 11.046875 13.988281 L 11.046875 13.671875 " fill-opacity="1" fill-rule="nonzero"/><path fill="#ab9c65" d="M 15.332031 13.027344 L 17.808594 13.027344 L 17.808594 13.34375 L 15.332031 13.34375 L 15.332031 13.027344 " fill-opacity="1" fill-rule="nonzero"/><path fill="#ab9c65" d="M 9.308594 15.792969 L 10.601562 15.792969 L 10.601562 17.085938 L 9.308594 17.085938 L 9.308594 15.792969 " fill-opacity="1" fill-rule="nonzero"/><path fill="#ab9c65" d="M 11.046875 15.960938 L 14.910156 15.960938 L 14.910156 16.277344 L 11.046875 16.277344 L 11.046875 15.960938 " fill-opacity="1" fill-rule="nonzero"/><path fill="#ab9c65" d="M 11.046875 16.601562 L 16.207031 16.601562 L 16.207031 16.917969 L 11.046875 16.917969 L 11.046875 16.601562 " fill-opacity="1" fill-rule="nonzero"/><path fill="#ab9c65" d="M 15.335938 15.960938 L 18.320312 15.960938 L 18.320312 16.277344 L 15.335938 16.277344 L 15.335938 15.960938 " fill-opacity="1" fill-rule="nonzero"/><g clip-path="url(#601f6c3bec)"><path fill="#ab9c65" d="M 15 27.957031 C 7.574219 27.957031 1.558594 21.941406 1.558594 14.515625 C 1.558594 7.089844 7.574219 1.074219 15 1.074219 C 22.425781 1.074219 28.441406 7.089844 28.441406 14.515625 C 28.441406 21.941406 22.425781 27.957031 15 27.957031 Z M 15 0 C 6.984375 0 0.484375 6.5 0.484375 14.515625 C 0.484375 22.535156 6.984375 29.03125 15 29.03125 C 23.015625 29.03125 29.515625 22.535156 29.515625 14.515625 C 29.515625 6.5 23.015625 0 15 0 " fill-opacity="1" fill-rule="nonzero"/></g><path fill="#ab9c65" d="M 15.09375 14.5625 C 15.042969 14.515625 14.976562 14.484375 14.90625 14.46875 C 14.976562 14.484375 15.042969 14.515625 15.09375 14.5625 " fill-opacity="1" fill-rule="nonzero"/><path fill="#ab9c65" d="M 9.378906 19.75 C 9.378906 19.855469 9.378906 19.941406 9.378906 20.042969 C 9.738281 20.042969 10.09375 20.042969 10.449219 20.039062 C 10.550781 20.039062 10.601562 19.984375 10.636719 19.921875 C 10.859375 19.546875 11.085938 19.171875 11.308594 18.796875 C 11.328125 18.761719 11.347656 18.730469 11.371094 18.691406 C 11.402344 18.710938 11.40625 18.730469 11.414062 18.753906 C 11.667969 19.457031 11.921875 20.160156 12.175781 20.863281 C 12.207031 20.941406 12.242188 21.011719 12.378906 21.019531 C 12.515625 21.019531 12.566406 20.957031 12.605469 20.878906 C 12.894531 20.332031 13.183594 19.789062 13.472656 19.246094 C 13.484375 19.226562 13.492188 19.210938 13.511719 19.179688 C 13.597656 19.324219 13.675781 19.460938 13.75 19.59375 C 13.820312 19.71875 13.886719 19.84375 13.957031 19.96875 C 13.992188 20.03125 14.050781 20.074219 14.144531 20.074219 C 14.496094 20.078125 14.847656 20.074219 15.207031 20.074219 C 15.207031 19.980469 15.207031 19.886719 15.207031 19.789062 C 14.933594 19.789062 14.667969 19.785156 14.398438 19.789062 C 14.3125 19.789062 14.277344 19.769531 14.25 19.714844 C 14.074219 19.390625 13.890625 19.070312 13.710938 18.75 C 13.675781 18.683594 13.617188 18.636719 13.511719 18.632812 C 13.398438 18.632812 13.339844 18.683594 13.304688 18.753906 C 13.300781 18.761719 13.300781 18.765625 13.296875 18.769531 C 13.027344 19.273438 12.761719 19.777344 12.496094 20.277344 C 12.476562 20.3125 12.457031 20.34375 12.433594 20.382812 C 12.382812 20.320312 12.375 20.257812 12.351562 20.199219 C 12.113281 19.542969 11.875 18.886719 11.636719 18.226562 C 11.613281 18.152344 11.570312 18.089844 11.445312 18.085938 C 11.328125 18.078125 11.265625 18.128906 11.222656 18.203125 C 10.933594 18.6875 10.640625 19.171875 10.355469 19.660156 C 10.316406 19.726562 10.273438 19.753906 10.167969 19.753906 C 9.90625 19.746094 9.648438 19.75 9.378906 19.75 " fill-opacity="1" fill-rule="nonzero"/><path fill="#ab9c65" d="M 22.046875 19.804688 C 22.027344 19.832031 22.011719 19.863281 21.996094 19.894531 C 21.984375 19.914062 21.976562 19.929688 21.960938 19.949219 L 19.648438 23.097656 C 19.589844 23.179688 19.5 23.234375 19.398438 23.242188 C 19.382812 23.246094 19.367188 23.246094 19.351562 23.246094 C 19.269531 23.242188 19.1875 23.214844 19.125 23.160156 L 17.441406 21.703125 C 17.425781 21.691406 17.414062 21.679688 17.402344 21.664062 C 17.378906 21.636719 17.355469 21.613281 17.332031 21.589844 C 17.21875 21.503906 17.148438 21.367188 17.152344 21.214844 C 17.160156 20.988281 17.320312 20.804688 17.535156 20.765625 C 17.644531 20.726562 17.769531 20.746094 17.867188 20.824219 C 17.910156 20.851562 17.945312 20.882812 17.980469 20.917969 L 19.105469 21.890625 C 19.191406 21.96875 19.324219 21.953125 19.394531 21.859375 L 21.21875 19.375 C 21.230469 19.359375 21.242188 19.335938 21.253906 19.316406 C 21.289062 19.242188 21.34375 19.179688 21.410156 19.132812 C 21.480469 19.070312 21.574219 19.042969 21.667969 19.050781 C 21.675781 19.050781 21.679688 19.050781 21.6875 19.050781 C 21.945312 19.058594 22.152344 19.273438 22.144531 19.53125 C 22.140625 19.632812 22.105469 19.726562 22.046875 19.804688 Z M 21.148438 17.871094 C 20.78125 17.699219 20.378906 17.585938 19.957031 17.546875 C 19.847656 17.539062 19.738281 17.53125 19.628906 17.53125 C 17.644531 17.53125 16.039062 19.140625 16.039062 21.128906 C 16.039062 21.488281 16.089844 21.835938 16.191406 22.164062 C 16.320312 22.605469 16.539062 23.011719 16.816406 23.363281 C 17.476562 24.1875 18.492188 24.71875 19.628906 24.71875 C 21.613281 24.71875 23.222656 23.109375 23.222656 21.128906 C 23.222656 19.683594 22.371094 18.441406 21.148438 17.871094 " fill-opacity="1" fill-rule="nonzero"/><path fill="#ab9c65" d="M 19.65625 7.792969 C 19.820312 7.792969 19.957031 7.925781 19.957031 8.09375 L 19.957031 17.109375 C 20.378906 17.144531 20.78125 17.222656 21.148438 17.394531 L 21.148438 7.195312 C 21.148438 6.863281 20.878906 6.597656 20.550781 6.597656 L 18.199219 6.597656 L 18.199219 7.792969 L 19.65625 7.792969 " fill-opacity="1" fill-rule="nonzero"/><path fill="#ab9c65" d="M 8.277344 22.164062 C 8.113281 22.164062 7.976562 22.03125 7.976562 21.863281 L 7.976562 8.09375 C 7.976562 7.925781 8.113281 7.792969 8.277344 7.792969 L 9.726562 7.792969 L 9.726562 6.597656 L 7.375 6.597656 C 7.042969 6.597656 6.777344 6.863281 6.777344 7.195312 L 6.777344 22.761719 C 6.777344 23.09375 7.042969 23.363281 7.375 23.363281 L 16.308594 23.363281 C 16.027344 23.011719 15.882812 22.605469 15.75 22.164062 L 8.277344 22.164062 " fill-opacity="1" fill-rule="nonzero"/><path fill="#ab9c65" d="M 13.957031 5.164062 C 14.382812 5.164062 14.726562 5.5 14.726562 5.921875 C 14.726562 5.945312 14.726562 5.972656 14.722656 5.996094 C 14.683594 6.378906 14.355469 6.6875 13.964844 6.683594 C 13.570312 6.683594 13.246094 6.382812 13.210938 5.996094 C 13.207031 5.96875 13.207031 5.945312 13.207031 5.917969 C 13.207031 5.507812 13.546875 5.164062 13.957031 5.164062 Z M 10.167969 7.792969 L 10.167969 8.449219 L 17.757812 8.449219 L 17.757812 7.792969 C 17.757812 7.394531 17.757812 6.996094 17.757812 6.597656 L 17.757812 5.917969 L 15.746094 5.917969 C 15.742188 5.851562 15.742188 5.800781 15.738281 5.753906 C 15.660156 5.042969 15.210938 4.472656 14.628906 4.367188 C 14.230469 4.292969 13.832031 4.304688 13.429688 4.347656 C 12.988281 4.394531 12.675781 4.628906 12.449219 4.996094 C 12.277344 5.277344 12.203125 5.585938 12.179688 5.929688 L 10.167969 5.929688 L 10.167969 6.597656 C 10.167969 6.996094 10.167969 7.394531 10.167969 7.792969 " fill-opacity="1" fill-rule="nonzero"/><path fill="#ab9c65" d="M 9.308594 10.148438 L 10.601562 10.148438 L 10.601562 11.441406 L 9.308594 11.441406 L 9.308594 10.148438 " fill-opacity="1" fill-rule="nonzero"/><path fill="#ab9c65" d="M 11.046875 10.316406 L 14.910156 10.316406 L 14.910156 10.632812 L 11.046875 10.632812 L 11.046875 10.316406 " fill-opacity="1" fill-rule="nonzero"/><path fill="#ab9c65" d="M 11.046875 10.957031 L 16.230469 10.957031 L 16.230469 11.273438 L 11.046875 11.273438 L 11.046875 10.957031 " fill-opacity="1" fill-rule="nonzero"/><path fill="#ab9c65" d="M 15.339844 10.316406 L 18.644531 10.316406 L 18.644531 10.632812 L 15.339844 10.632812 L 15.339844 10.316406 " fill-opacity="1" fill-rule="nonzero"/><path fill="#ab9c65" d="M 9.308594 12.859375 L 10.601562 12.859375 L 10.601562 14.15625 L 9.308594 14.15625 L 9.308594 12.859375 " fill-opacity="1" fill-rule="nonzero"/><path fill="#ab9c65" d="M 11.046875 13.027344 L 14.910156 13.027344 L 14.910156 13.34375 L 11.046875 13.34375 L 11.046875 13.027344 " fill-opacity="1" fill-rule="nonzero"/><path fill="#ab9c65" d="M 11.046875 13.671875 L 16.230469 13.671875 L 16.230469 13.988281 L 11.046875 13.988281 L 11.046875 13.671875 " fill-opacity="1" fill-rule="nonzero"/><path fill="#ab9c65" d="M 15.332031 13.027344 L 17.808594 13.027344 L 17.808594 13.34375 L 15.332031 13.34375 L 15.332031 13.027344 " fill-opacity="1" fill-rule="nonzero"/><path fill="#ab9c65" d="M 9.308594 15.792969 L 10.601562 15.792969 L 10.601562 17.085938 L 9.308594 17.085938 L 9.308594 15.792969 " fill-opacity="1" fill-rule="nonzero"/><path fill="#ab9c65" d="M 11.046875 15.960938 L 14.910156 15.960938 L 14.910156 16.277344 L 11.046875 16.277344 L 11.046875 15.960938 " fill-opacity="1" fill-rule="nonzero"/><path fill="#ab9c65" d="M 11.046875 16.601562 L 16.207031 16.601562 L 16.207031 16.917969 L 11.046875 16.917969 L 11.046875 16.601562 " fill-opacity="1" fill-rule="nonzero"/><path fill="#ab9c65" d="M 15.335938 15.960938 L 18.320312 15.960938 L 18.320312 16.277344 L 15.335938 16.277344 L 15.335938 15.960938 " fill-opacity="1" fill-rule="nonzero"/></svg>