<svg xmlns="http://www.w3.org/2000/svg" xmlns:xlink="http://www.w3.org/1999/xlink" width="40" zoomAndPan="magnify" viewBox="0 0 30 30.000001" height="40" preserveAspectRatio="xMidYMid meet" version="1.0"><defs><clipPath id="64dba4945b"><path d="M 0.484375 0 L 29.515625 0 L 29.515625 29.03125 L 0.484375 29.03125 Z M 0.484375 0 " clip-rule="nonzero"/></clipPath><clipPath id="75a0f67b32"><path d="M 0.484375 0 L 29.515625 0 L 29.515625 29.03125 L 0.484375 29.03125 Z M 0.484375 0 " clip-rule="nonzero"/></clipPath></defs><g clip-path="url(#64dba4945b)"><path fill="#ab9c65" d="M 28.394531 8.925781 C 28.179688 8.398438 27.566406 8.148438 27.039062 8.378906 C 26.507812 8.59375 26.261719 9.207031 26.488281 9.734375 C 27.121094 11.238281 27.441406 12.847656 27.441406 14.515625 C 27.441406 18.226562 25.792969 21.554688 23.210938 23.835938 C 22.839844 21.285156 21.148438 19.160156 18.847656 18.1875 C 19.988281 17.140625 20.703125 15.644531 20.703125 13.988281 C 20.703125 10.84375 18.140625 8.285156 15 8.285156 C 11.859375 8.285156 9.296875 10.84375 9.296875 13.988281 C 9.296875 15.644531 10.011719 17.140625 11.152344 18.1875 C 8.851562 19.160156 7.160156 21.285156 6.789062 23.835938 C 4.195312 21.554688 2.558594 18.226562 2.558594 14.515625 C 2.558594 7.652344 8.136719 2.074219 15 2.074219 C 16.667969 2.074219 18.277344 2.394531 19.78125 3.027344 C 20.308594 3.253906 20.910156 3.007812 21.136719 2.476562 C 21.355469 1.949219 21.117188 1.335938 20.589844 1.121094 C 18.824219 0.375 16.949219 0 15 0 C 6.996094 0 0.484375 6.511719 0.484375 14.515625 C 0.484375 22.519531 6.996094 29.03125 15 29.03125 C 23.003906 29.03125 29.515625 22.519531 29.515625 14.515625 C 29.515625 12.566406 29.144531 10.691406 28.394531 8.925781 Z M 15 10.367188 C 17 10.367188 18.628906 11.996094 18.628906 13.996094 C 18.628906 16 17 17.625 15 17.625 C 13 17.625 11.371094 16 11.371094 13.996094 C 11.371094 11.996094 13 10.367188 15 10.367188 Z M 8.777344 25.277344 L 8.777344 24.886719 C 8.777344 22.023438 11.101562 19.699219 13.964844 19.699219 L 16.035156 19.699219 C 18.898438 19.699219 21.222656 22.023438 21.222656 24.886719 L 21.222656 25.277344 C 19.386719 26.347656 17.269531 26.957031 15 26.957031 C 12.730469 26.957031 10.613281 26.335938 8.777344 25.277344 Z M 8.777344 25.277344 " fill-opacity="1" fill-rule="nonzero"/></g><path fill="#ab9c65" d="M 22.257812 6.222656 L 23.296875 6.222656 L 23.296875 7.257812 C 23.296875 7.828125 23.761719 8.296875 24.332031 8.296875 C 24.902344 8.296875 25.367188 7.828125 25.367188 7.257812 L 25.367188 6.222656 L 26.40625 6.222656 C 26.976562 6.222656 27.441406 5.753906 27.441406 5.183594 C 27.441406 4.613281 26.976562 4.148438 26.40625 4.148438 L 25.367188 4.148438 L 25.367188 3.109375 C 25.367188 2.539062 24.902344 2.074219 24.332031 2.074219 C 23.761719 2.074219 23.296875 2.539062 23.296875 3.109375 L 23.296875 4.148438 L 22.257812 4.148438 C 21.6875 4.148438 21.222656 4.613281 21.222656 5.183594 C 21.222656 5.753906 21.6875 6.222656 22.257812 6.222656 Z M 22.257812 6.222656 " fill-opacity="1" fill-rule="nonzero"/><g clip-path="url(#75a0f67b32)"><path fill="#ab9c65" d="M 28.394531 8.925781 C 28.179688 8.398438 27.566406 8.148438 27.039062 8.378906 C 26.507812 8.59375 26.261719 9.207031 26.488281 9.734375 C 27.121094 11.238281 27.441406 12.847656 27.441406 14.515625 C 27.441406 18.226562 25.792969 21.554688 23.210938 23.835938 C 22.839844 21.285156 21.148438 19.160156 18.847656 18.1875 C 19.988281 17.140625 20.703125 15.644531 20.703125 13.988281 C 20.703125 10.84375 18.140625 8.285156 15 8.285156 C 11.859375 8.285156 9.296875 10.84375 9.296875 13.988281 C 9.296875 15.644531 10.011719 17.140625 11.152344 18.1875 C 8.851562 19.160156 7.160156 21.285156 6.789062 23.835938 C 4.195312 21.554688 2.558594 18.226562 2.558594 14.515625 C 2.558594 7.652344 8.136719 2.074219 15 2.074219 C 16.667969 2.074219 18.277344 2.394531 19.78125 3.027344 C 20.308594 3.253906 20.910156 3.007812 21.136719 2.476562 C 21.355469 1.949219 21.117188 1.335938 20.589844 1.121094 C 18.824219 0.375 16.949219 0 15 0 C 6.996094 0 0.484375 6.511719 0.484375 14.515625 C 0.484375 22.519531 6.996094 29.03125 15 29.03125 C 23.003906 29.03125 29.515625 22.519531 29.515625 14.515625 C 29.515625 12.566406 29.144531 10.691406 28.394531 8.925781 Z M 15 10.367188 C 17 10.367188 18.628906 11.996094 18.628906 13.996094 C 18.628906 16 17 17.625 15 17.625 C 13 17.625 11.371094 16 11.371094 13.996094 C 11.371094 11.996094 13 10.367188 15 10.367188 Z M 8.777344 25.277344 L 8.777344 24.886719 C 8.777344 22.023438 11.101562 19.699219 13.964844 19.699219 L 16.035156 19.699219 C 18.898438 19.699219 21.222656 22.023438 21.222656 24.886719 L 21.222656 25.277344 C 19.386719 26.347656 17.269531 26.957031 15 26.957031 C 12.730469 26.957031 10.613281 26.335938 8.777344 25.277344 Z M 8.777344 25.277344 " fill-opacity="1" fill-rule="nonzero"/></g><path fill="#ab9c65" d="M 22.257812 6.222656 L 23.296875 6.222656 L 23.296875 7.257812 C 23.296875 7.828125 23.761719 8.296875 24.332031 8.296875 C 24.902344 8.296875 25.367188 7.828125 25.367188 7.257812 L 25.367188 6.222656 L 26.40625 6.222656 C 26.976562 6.222656 27.441406 5.753906 27.441406 5.183594 C 27.441406 4.613281 26.976562 4.148438 26.40625 4.148438 L 25.367188 4.148438 L 25.367188 3.109375 C 25.367188 2.539062 24.902344 2.074219 24.332031 2.074219 C 23.761719 2.074219 23.296875 2.539062 23.296875 3.109375 L 23.296875 4.148438 L 22.257812 4.148438 C 21.6875 4.148438 21.222656 4.613281 21.222656 5.183594 C 21.222656 5.753906 21.6875 6.222656 22.257812 6.222656 Z M 22.257812 6.222656 " fill-opacity="1" fill-rule="nonzero"/></svg>