<svg xmlns="http://www.w3.org/2000/svg" xmlns:xlink="http://www.w3.org/1999/xlink" width="40" zoomAndPan="magnify" viewBox="0 0 30 30.000001" height="40" preserveAspectRatio="xMidYMid meet" version="1.0"><defs><clipPath id="584ca4c20f"><path d="M 7.949219 8.777344 L 22.046875 8.777344 L 22.046875 21.941406 L 7.949219 21.941406 Z M 7.949219 8.777344 " clip-rule="nonzero"/></clipPath><clipPath id="02df3ac1c9"><path d="M 5.808594 5.246094 L 23.953125 5.246094 L 23.953125 15 L 5.808594 15 Z M 5.808594 5.246094 " clip-rule="nonzero"/></clipPath><clipPath id="6735a8e1db"><path d="M 0.484375 0 L 29.515625 0 L 29.515625 29.03125 L 0.484375 29.03125 Z M 0.484375 0 " clip-rule="nonzero"/></clipPath></defs><g clip-path="url(#584ca4c20f)"><path fill="#ab9c65" d="M 21.953125 14.800781 L 15.300781 8.921875 C 15.128906 8.769531 14.867188 8.769531 14.695312 8.921875 L 8.042969 14.800781 C 7.992188 14.84375 7.964844 14.90625 7.964844 14.972656 L 7.964844 21.886719 C 7.964844 22.011719 8.066406 22.113281 8.191406 22.113281 L 12.871094 22.113281 C 12.996094 22.113281 13.097656 22.011719 13.097656 21.886719 L 13.097656 17.46875 C 13.097656 16.964844 13.507812 16.558594 14.011719 16.558594 L 15.984375 16.558594 C 16.488281 16.558594 16.898438 16.964844 16.898438 17.46875 L 16.898438 21.886719 C 16.898438 22.011719 17 22.113281 17.125 22.113281 L 21.800781 22.113281 C 21.929688 22.113281 22.03125 22.011719 22.03125 21.886719 L 22.03125 14.972656 C 22.03125 14.90625 22.003906 14.84375 21.953125 14.800781 " fill-opacity="1" fill-rule="nonzero"/></g><g clip-path="url(#02df3ac1c9)"><path fill="#ab9c65" d="M 23.785156 12.519531 L 16.203125 5.855469 C 15.511719 5.25 14.480469 5.25 13.792969 5.855469 L 6.207031 12.519531 C 5.835938 12.847656 5.816406 13.425781 6.167969 13.777344 C 6.488281 14.097656 7.003906 14.117188 7.347656 13.816406 L 14.394531 7.605469 C 14.738281 7.304688 15.253906 7.304688 15.601562 7.605469 L 22.648438 13.816406 C 22.988281 14.117188 23.503906 14.097656 23.828125 13.777344 C 24.179688 13.425781 24.160156 12.847656 23.785156 12.519531 " fill-opacity="1" fill-rule="nonzero"/></g><g clip-path="url(#6735a8e1db)"><path fill="#ab9c65" d="M 15 0 C 6.96875 0 0.484375 6.484375 0.484375 14.515625 C 0.484375 22.546875 6.96875 29.03125 15 29.03125 C 23.03125 29.03125 29.515625 22.546875 29.515625 14.515625 C 29.515625 6.484375 23.03125 0 15 0 Z M 15 27.742188 C 7.710938 27.742188 1.773438 21.804688 1.773438 14.515625 C 1.773438 7.226562 7.710938 1.289062 15 1.289062 C 22.289062 1.289062 28.226562 7.226562 28.226562 14.515625 C 28.226562 21.804688 22.289062 27.742188 15 27.742188 Z M 15 27.742188 " fill-opacity="1" fill-rule="nonzero"/></g></svg>