<svg xmlns="http://www.w3.org/2000/svg" xmlns:xlink="http://www.w3.org/1999/xlink" width="40" zoomAndPan="magnify" viewBox="0 0 30 30.000001" height="40" preserveAspectRatio="xMidYMid meet" version="1.0"><defs><clipPath id="a269e20b4e"><path d="M 0.484375 0 L 27 0 L 27 21 L 0.484375 21 Z M 0.484375 0 " clip-rule="nonzero"/></clipPath><clipPath id="65ef164414"><path d="M 2 6 L 29.515625 6 L 29.515625 29.03125 L 2 29.03125 Z M 2 6 " clip-rule="nonzero"/></clipPath><clipPath id="b0f02ba4a1"><path d="M 0.484375 0 L 27 0 L 27 21 L 0.484375 21 Z M 0.484375 0 " clip-rule="nonzero"/></clipPath><clipPath id="4d8b6bc3c7"><path d="M 2 6 L 29.515625 6 L 29.515625 29.03125 L 2 29.03125 Z M 2 6 " clip-rule="nonzero"/></clipPath></defs><path fill="#ab9c65" d="M 19.550781 12.761719 L 19.339844 12.761719 C 19.339844 12.207031 19.234375 11.667969 19.019531 11.164062 C 18.8125 10.675781 18.515625 10.234375 18.140625 9.859375 C 17.761719 9.480469 17.324219 9.1875 16.835938 8.980469 C 16.328125 8.765625 15.789062 8.65625 15.238281 8.65625 C 14.683594 8.65625 14.144531 8.765625 13.636719 8.980469 C 13.148438 9.1875 12.710938 9.480469 12.332031 9.859375 C 11.957031 10.234375 11.660156 10.675781 11.453125 11.164062 C 11.238281 11.667969 11.132812 12.207031 11.132812 12.761719 L 10.921875 12.761719 C 10.238281 12.761719 9.679688 13.316406 9.679688 14.003906 L 9.679688 19.484375 C 9.679688 20.171875 10.238281 20.726562 10.921875 20.726562 L 19.550781 20.726562 C 20.238281 20.726562 20.792969 20.171875 20.792969 19.484375 L 20.792969 14.003906 C 20.792969 13.316406 20.238281 12.761719 19.550781 12.761719 Z M 15.6875 16.792969 L 15.6875 17.679688 C 15.6875 17.929688 15.484375 18.128906 15.238281 18.128906 C 14.988281 18.128906 14.785156 17.929688 14.785156 17.679688 L 14.785156 16.792969 C 14.371094 16.617188 14.082031 16.207031 14.082031 15.730469 C 14.082031 15.621094 14.097656 15.519531 14.125 15.417969 C 14.257812 14.933594 14.707031 14.574219 15.238281 14.574219 C 15.765625 14.574219 16.214844 14.933594 16.347656 15.417969 C 16.375 15.519531 16.390625 15.621094 16.390625 15.730469 C 16.390625 16.207031 16.101562 16.617188 15.6875 16.792969 Z M 12.355469 12.761719 C 12.355469 11.171875 13.648438 9.878906 15.238281 9.878906 C 16.824219 9.878906 18.117188 11.171875 18.117188 12.761719 Z M 12.355469 12.761719 " fill-opacity="1" fill-rule="nonzero"/><path fill="#ab9c65" d="M 24.175781 7.230469 C 22.574219 7.234375 20.984375 7.015625 19.445312 6.574219 C 17.964844 6.152344 16.550781 5.527344 15.234375 4.722656 L 15.011719 4.585938 L 14.789062 4.726562 L 14.765625 4.742188 C 13.34375 5.652344 11.796875 6.324219 10.167969 6.742188 C 8.71875 7.117188 7.222656 7.28125 5.722656 7.230469 L 5.34375 7.21875 L 5.292969 7.59375 C 5.136719 8.761719 5.0625 9.921875 5.078125 11.046875 C 5.097656 12.734375 5.3125 14.351562 5.714844 15.851562 C 6.195312 17.636719 6.941406 19.269531 7.941406 20.710938 C 8.507812 21.527344 9.164062 22.296875 9.894531 22.992188 C 10.679688 23.738281 11.566406 24.425781 12.53125 25.027344 C 13.242188 25.46875 14.007812 25.878906 14.8125 26.242188 C 14.832031 26.25 14.847656 26.257812 14.867188 26.265625 L 15.023438 26.335938 L 15.179688 26.277344 C 16.023438 25.972656 16.824219 25.613281 17.5625 25.207031 C 18.585938 24.648438 19.515625 23.984375 20.332031 23.234375 C 21.089844 22.542969 21.761719 21.765625 22.335938 20.917969 C 23.332031 19.445312 24.050781 17.734375 24.472656 15.835938 C 25.03125 13.320312 25.070312 10.464844 24.589844 7.582031 L 24.53125 7.230469 Z M 23.652344 15.652344 C 23.648438 15.679688 23.640625 15.707031 23.632812 15.734375 L 21.171875 15.734375 L 21.171875 19.714844 C 21.171875 20.449219 20.578125 21.042969 19.847656 21.042969 L 15.207031 21.042969 L 15.207031 25.371094 C 15.15625 25.390625 15.105469 25.410156 15.054688 25.429688 C 14.320312 25.09375 13.621094 24.71875 12.976562 24.316406 C 9.71875 22.285156 7.558594 19.398438 6.554688 15.734375 L 9.292969 15.734375 L 9.292969 13.855469 C 9.300781 13.738281 9.332031 13.300781 9.683594 12.917969 C 10.023438 12.546875 10.441406 12.46875 10.558594 12.453125 C 10.65625 12.445312 10.75 12.441406 10.847656 12.4375 C 10.855469 12.0625 10.910156 11.746094 10.964844 11.511719 C 11.003906 11.347656 11.070312 11.101562 11.191406 10.820312 C 11.414062 10.296875 11.726562 9.828125 12.132812 9.425781 C 12.535156 9.023438 13.003906 8.707031 13.527344 8.484375 C 14.058594 8.261719 14.628906 8.144531 15.210938 8.140625 L 15.210938 5.683594 C 16.472656 6.410156 17.816406 6.980469 19.214844 7.378906 C 20.714844 7.808594 22.261719 8.039062 23.820312 8.066406 C 23.996094 9.234375 24.085938 10.394531 24.085938 11.523438 C 24.085938 12.964844 23.941406 14.355469 23.652344 15.652344 Z M 23.652344 15.652344 " fill-opacity="1" fill-rule="nonzero"/><path fill="#ab9c65" d="M 12.914062 12.480469 L 15.210938 12.480469 L 15.210938 10.410156 C 13.941406 10.417969 12.914062 11.34375 12.914062 12.480469 Z M 12.914062 12.480469 " fill-opacity="1" fill-rule="nonzero"/><g clip-path="url(#a269e20b4e)"><path fill="#ab9c65" d="M 2.839844 20.113281 C 2.050781 18.410156 1.609375 16.511719 1.609375 14.515625 C 1.609375 7.132812 7.617188 1.128906 15 1.128906 C 16.675781 1.128906 18.140625 1.488281 18.597656 1.617188 C 19.96875 2.003906 21.140625 2.578125 22.109375 3.191406 C 21.984375 3.457031 21.917969 3.753906 21.917969 4.066406 C 21.917969 5.21875 22.851562 6.152344 24.003906 6.152344 C 24.429688 6.152344 24.828125 6.023438 25.15625 5.804688 C 25.480469 5.589844 25.738281 5.289062 25.902344 4.929688 C 26.023438 4.667969 26.089844 4.375 26.089844 4.066406 C 26.089844 2.914062 25.15625 1.980469 24.003906 1.980469 C 23.585938 1.980469 23.195312 2.105469 22.867188 2.316406 C 22.164062 1.859375 21.417969 1.464844 20.648438 1.140625 C 18.859375 0.382812 16.957031 0 15 0 C 13.039062 0 11.140625 0.382812 9.347656 1.140625 C 8.488281 1.503906 7.660156 1.953125 6.882812 2.480469 C 6.113281 3 5.390625 3.59375 4.734375 4.25 C 4.078125 4.90625 3.480469 5.628906 2.960938 6.398438 C 2.4375 7.175781 1.988281 8.003906 1.625 8.863281 C 0.867188 10.65625 0.484375 12.554688 0.484375 14.515625 C 0.484375 16.476562 0.867188 18.375 1.625 20.167969 C 1.691406 20.320312 1.757812 20.472656 1.828125 20.625 C 1.996094 20.816406 2.261719 20.886719 2.488281 20.796875 C 2.746094 20.695312 2.902344 20.40625 2.839844 20.113281 Z M 2.839844 20.113281 " fill-opacity="1" fill-rule="nonzero"/></g><g clip-path="url(#65ef164414)"><path fill="#ab9c65" d="M 28.375 8.863281 C 28.101562 8.214844 27.773438 7.582031 27.40625 6.976562 C 27.207031 6.722656 26.839844 6.679688 26.601562 6.859375 C 26.390625 7.019531 26.320312 7.328125 26.449219 7.585938 C 26.925781 8.367188 27.503906 9.5 27.90625 10.949219 C 27.90625 10.949219 28.386719 12.710938 28.386719 14.515625 C 28.386719 21.898438 22.382812 27.902344 15 27.902344 C 13.339844 27.902344 11.996094 27.582031 11.398438 27.414062 C 9.285156 26.808594 7.621094 25.75 6.375 24.683594 C 6.472656 24.441406 6.527344 24.175781 6.527344 23.898438 C 6.527344 22.746094 5.59375 21.8125 4.441406 21.8125 C 4.230469 21.8125 4.027344 21.84375 3.835938 21.902344 C 2.980469 22.160156 2.355469 22.957031 2.355469 23.898438 C 2.355469 25.050781 3.289062 25.984375 4.441406 25.984375 C 4.886719 25.984375 5.296875 25.84375 5.636719 25.609375 C 6.035156 25.945312 6.453125 26.261719 6.882812 26.550781 C 7.660156 27.078125 8.488281 27.527344 9.347656 27.890625 C 11.140625 28.648438 13.039062 29.03125 15 29.03125 C 16.957031 29.03125 18.859375 28.648438 20.648438 27.890625 C 21.511719 27.527344 22.339844 27.078125 23.117188 26.550781 C 23.882812 26.03125 24.605469 25.4375 25.265625 24.78125 C 25.921875 24.125 26.515625 23.402344 27.035156 22.632812 C 27.558594 21.855469 28.011719 21.027344 28.375 20.167969 C 29.132812 18.375 29.515625 16.476562 29.515625 14.515625 C 29.515625 12.554688 29.132812 10.65625 28.375 8.863281 Z M 28.375 8.863281 " fill-opacity="1" fill-rule="nonzero"/></g><path fill="#ab9c65" d="M 19.550781 12.761719 L 19.339844 12.761719 C 19.339844 12.207031 19.234375 11.667969 19.019531 11.164062 C 18.8125 10.675781 18.515625 10.234375 18.140625 9.859375 C 17.761719 9.480469 17.324219 9.1875 16.835938 8.980469 C 16.328125 8.765625 15.789062 8.65625 15.238281 8.65625 C 14.683594 8.65625 14.144531 8.765625 13.636719 8.980469 C 13.148438 9.1875 12.710938 9.480469 12.332031 9.859375 C 11.957031 10.234375 11.660156 10.675781 11.453125 11.164062 C 11.238281 11.667969 11.132812 12.207031 11.132812 12.761719 L 10.921875 12.761719 C 10.238281 12.761719 9.679688 13.316406 9.679688 14.003906 L 9.679688 19.484375 C 9.679688 20.171875 10.238281 20.726562 10.921875 20.726562 L 19.550781 20.726562 C 20.238281 20.726562 20.792969 20.171875 20.792969 19.484375 L 20.792969 14.003906 C 20.792969 13.316406 20.238281 12.761719 19.550781 12.761719 Z M 15.6875 16.792969 L 15.6875 17.679688 C 15.6875 17.929688 15.484375 18.128906 15.238281 18.128906 C 14.988281 18.128906 14.785156 17.929688 14.785156 17.679688 L 14.785156 16.792969 C 14.371094 16.617188 14.082031 16.207031 14.082031 15.730469 C 14.082031 15.621094 14.097656 15.519531 14.125 15.417969 C 14.257812 14.933594 14.707031 14.574219 15.238281 14.574219 C 15.765625 14.574219 16.214844 14.933594 16.347656 15.417969 C 16.375 15.519531 16.390625 15.621094 16.390625 15.730469 C 16.390625 16.207031 16.101562 16.617188 15.6875 16.792969 Z M 12.355469 12.761719 C 12.355469 11.171875 13.648438 9.878906 15.238281 9.878906 C 16.824219 9.878906 18.117188 11.171875 18.117188 12.761719 Z M 12.355469 12.761719 " fill-opacity="1" fill-rule="nonzero"/><path fill="#ab9c65" d="M 24.175781 7.230469 C 22.574219 7.234375 20.984375 7.015625 19.445312 6.574219 C 17.964844 6.152344 16.550781 5.527344 15.234375 4.722656 L 15.011719 4.585938 L 14.789062 4.726562 L 14.765625 4.742188 C 13.34375 5.652344 11.796875 6.324219 10.167969 6.742188 C 8.71875 7.117188 7.222656 7.28125 5.722656 7.230469 L 5.34375 7.21875 L 5.292969 7.59375 C 5.136719 8.761719 5.0625 9.921875 5.078125 11.046875 C 5.097656 12.734375 5.3125 14.351562 5.714844 15.851562 C 6.195312 17.636719 6.941406 19.269531 7.941406 20.710938 C 8.507812 21.527344 9.164062 22.296875 9.894531 22.992188 C 10.679688 23.738281 11.566406 24.425781 12.53125 25.027344 C 13.242188 25.46875 14.007812 25.878906 14.8125 26.242188 C 14.832031 26.25 14.847656 26.257812 14.867188 26.265625 L 15.023438 26.335938 L 15.179688 26.277344 C 16.023438 25.972656 16.824219 25.613281 17.5625 25.207031 C 18.585938 24.648438 19.515625 23.984375 20.332031 23.234375 C 21.089844 22.542969 21.761719 21.765625 22.335938 20.917969 C 23.332031 19.445312 24.050781 17.734375 24.472656 15.835938 C 25.03125 13.320312 25.070312 10.464844 24.589844 7.582031 L 24.53125 7.230469 Z M 23.652344 15.652344 C 23.648438 15.679688 23.640625 15.707031 23.632812 15.734375 L 21.171875 15.734375 L 21.171875 19.714844 C 21.171875 20.449219 20.578125 21.042969 19.847656 21.042969 L 15.207031 21.042969 L 15.207031 25.371094 C 15.15625 25.390625 15.105469 25.410156 15.054688 25.429688 C 14.320312 25.09375 13.621094 24.71875 12.976562 24.316406 C 9.71875 22.285156 7.558594 19.398438 6.554688 15.734375 L 9.292969 15.734375 L 9.292969 13.855469 C 9.300781 13.738281 9.332031 13.300781 9.683594 12.917969 C 10.023438 12.546875 10.441406 12.46875 10.558594 12.453125 C 10.65625 12.445312 10.75 12.441406 10.847656 12.4375 C 10.855469 12.0625 10.910156 11.746094 10.964844 11.511719 C 11.003906 11.347656 11.070312 11.101562 11.191406 10.820312 C 11.414062 10.296875 11.726562 9.828125 12.132812 9.425781 C 12.535156 9.023438 13.003906 8.707031 13.527344 8.484375 C 14.058594 8.261719 14.628906 8.144531 15.210938 8.140625 L 15.210938 5.683594 C 16.472656 6.410156 17.816406 6.980469 19.214844 7.378906 C 20.714844 7.808594 22.261719 8.039062 23.820312 8.066406 C 23.996094 9.234375 24.085938 10.394531 24.085938 11.523438 C 24.085938 12.964844 23.941406 14.355469 23.652344 15.652344 Z M 23.652344 15.652344 " fill-opacity="1" fill-rule="nonzero"/><path fill="#ab9c65" d="M 12.914062 12.480469 L 15.210938 12.480469 L 15.210938 10.410156 C 13.941406 10.417969 12.914062 11.34375 12.914062 12.480469 Z M 12.914062 12.480469 " fill-opacity="1" fill-rule="nonzero"/><g clip-path="url(#b0f02ba4a1)"><path fill="#ab9c65" d="M 2.839844 20.113281 C 2.050781 18.410156 1.609375 16.511719 1.609375 14.515625 C 1.609375 7.132812 7.617188 1.128906 15 1.128906 C 16.675781 1.128906 18.140625 1.488281 18.597656 1.617188 C 19.96875 2.003906 21.140625 2.578125 22.109375 3.191406 C 21.984375 3.457031 21.917969 3.753906 21.917969 4.066406 C 21.917969 5.21875 22.851562 6.152344 24.003906 6.152344 C 24.429688 6.152344 24.828125 6.023438 25.15625 5.804688 C 25.480469 5.589844 25.738281 5.289062 25.902344 4.929688 C 26.023438 4.667969 26.089844 4.375 26.089844 4.066406 C 26.089844 2.914062 25.15625 1.980469 24.003906 1.980469 C 23.585938 1.980469 23.195312 2.105469 22.867188 2.316406 C 22.164062 1.859375 21.417969 1.464844 20.648438 1.140625 C 18.859375 0.382812 16.957031 0 15 0 C 13.039062 0 11.140625 0.382812 9.347656 1.140625 C 8.488281 1.503906 7.660156 1.953125 6.882812 2.480469 C 6.113281 3 5.390625 3.59375 4.734375 4.25 C 4.078125 4.90625 3.480469 5.628906 2.960938 6.398438 C 2.4375 7.175781 1.988281 8.003906 1.625 8.863281 C 0.867188 10.65625 0.484375 12.554688 0.484375 14.515625 C 0.484375 16.476562 0.867188 18.375 1.625 20.167969 C 1.691406 20.320312 1.757812 20.472656 1.828125 20.625 C 1.996094 20.816406 2.261719 20.886719 2.488281 20.796875 C 2.746094 20.695312 2.902344 20.40625 2.839844 20.113281 Z M 2.839844 20.113281 " fill-opacity="1" fill-rule="nonzero"/></g><g clip-path="url(#4d8b6bc3c7)"><path fill="#ab9c65" d="M 28.375 8.863281 C 28.101562 8.214844 27.773438 7.582031 27.40625 6.976562 C 27.207031 6.722656 26.839844 6.679688 26.601562 6.859375 C 26.390625 7.019531 26.320312 7.328125 26.449219 7.585938 C 26.925781 8.367188 27.503906 9.5 27.90625 10.949219 C 27.90625 10.949219 28.386719 12.710938 28.386719 14.515625 C 28.386719 21.898438 22.382812 27.902344 15 27.902344 C 13.339844 27.902344 11.996094 27.582031 11.398438 27.414062 C 9.285156 26.808594 7.621094 25.75 6.375 24.683594 C 6.472656 24.441406 6.527344 24.175781 6.527344 23.898438 C 6.527344 22.746094 5.59375 21.8125 4.441406 21.8125 C 4.230469 21.8125 4.027344 21.84375 3.835938 21.902344 C 2.980469 22.160156 2.355469 22.957031 2.355469 23.898438 C 2.355469 25.050781 3.289062 25.984375 4.441406 25.984375 C 4.886719 25.984375 5.296875 25.84375 5.636719 25.609375 C 6.035156 25.945312 6.453125 26.261719 6.882812 26.550781 C 7.660156 27.078125 8.488281 27.527344 9.347656 27.890625 C 11.140625 28.648438 13.039062 29.03125 15 29.03125 C 16.957031 29.03125 18.859375 28.648438 20.648438 27.890625 C 21.511719 27.527344 22.339844 27.078125 23.117188 26.550781 C 23.882812 26.03125 24.605469 25.4375 25.265625 24.78125 C 25.921875 24.125 26.515625 23.402344 27.035156 22.632812 C 27.558594 21.855469 28.011719 21.027344 28.375 20.167969 C 29.132812 18.375 29.515625 16.476562 29.515625 14.515625 C 29.515625 12.554688 29.132812 10.65625 28.375 8.863281 Z M 28.375 8.863281 " fill-opacity="1" fill-rule="nonzero"/></g></svg>