<svg xmlns="http://www.w3.org/2000/svg" xmlns:xlink="http://www.w3.org/1999/xlink" width="40" zoomAndPan="magnify" viewBox="0 0 30 30.000001" height="40" preserveAspectRatio="xMidYMid meet" version="1.0"><defs><clipPath id="a44edb22cf"><path d="M 6.804688 5.230469 L 23.5 5.230469 L 23.5 24 L 6.804688 24 Z M 6.804688 5.230469 " clip-rule="nonzero"/></clipPath><clipPath id="41bd9622b0"><path d="M 0.484375 0 L 29.515625 0 L 29.515625 29.03125 L 0.484375 29.03125 Z M 0.484375 0 " clip-rule="nonzero"/></clipPath></defs><g clip-path="url(#a44edb22cf)"><path fill="#ab9c65" d="M 10.695312 22.179688 L 11.023438 22.695312 L 9.296875 23.796875 L 6.804688 19.890625 L 8.53125 18.789062 L 10.6875 22.171875 C 10.6875 22.171875 10.6875 22.175781 10.6875 22.175781 C 10.691406 22.175781 10.691406 22.179688 10.695312 22.179688 Z M 20.71875 18.226562 L 17.90625 20.027344 C 17.832031 20.371094 17.628906 20.675781 17.34375 20.855469 C 17.160156 20.976562 16.949219 21.035156 16.726562 21.035156 C 16.585938 21.035156 16.445312 21.011719 16.300781 20.964844 L 14.277344 20.296875 C 14.132812 20.246094 14.054688 20.09375 14.101562 19.949219 C 14.148438 19.804688 14.304688 19.726562 14.449219 19.773438 L 16.472656 20.441406 C 16.691406 20.515625 16.886719 20.5 17.050781 20.394531 C 17.226562 20.28125 17.355469 20.066406 17.378906 19.839844 C 17.382812 19.828125 17.382812 19.816406 17.386719 19.808594 C 17.394531 19.503906 17.199219 19.21875 16.910156 19.125 L 12.464844 17.652344 C 12.03125 17.511719 11.617188 17.558594 11.226562 17.792969 L 9.296875 18.96875 L 11.011719 21.65625 L 11.964844 21.078125 C 12.035156 21.035156 12.117188 21.027344 12.195312 21.050781 L 15.855469 22.261719 C 16.347656 22.425781 16.835938 22.363281 17.273438 22.082031 L 21.46875 19.394531 C 21.789062 19.1875 21.882812 18.757812 21.679688 18.433594 C 21.472656 18.113281 21.039062 18.019531 20.71875 18.226562 Z M 23.191406 13.652344 C 23.191406 14.023438 23.050781 14.367188 22.792969 14.625 L 20.652344 16.765625 L 18.511719 14.625 C 17.976562 14.089844 17.976562 13.214844 18.511719 12.679688 C 18.769531 12.421875 19.113281 12.277344 19.484375 12.277344 C 19.851562 12.277344 20.199219 12.421875 20.457031 12.679688 C 20.5625 12.785156 20.738281 12.785156 20.84375 12.679688 C 21.382812 12.144531 22.253906 12.144531 22.792969 12.679688 C 23.050781 12.9375 23.191406 13.285156 23.191406 13.652344 Z M 21.78125 14.253906 C 21.78125 14.101562 21.65625 13.976562 21.503906 13.976562 L 20.925781 13.976562 L 20.925781 13.398438 C 20.925781 13.246094 20.804688 13.125 20.652344 13.125 C 20.5 13.125 20.375 13.246094 20.375 13.398438 L 20.375 13.976562 L 19.796875 13.976562 C 19.644531 13.976562 19.523438 14.101562 19.523438 14.253906 C 19.523438 14.40625 19.644531 14.527344 19.796875 14.527344 L 20.375 14.527344 L 20.375 15.105469 C 20.375 15.257812 20.5 15.378906 20.652344 15.378906 C 20.804688 15.378906 20.925781 15.257812 20.925781 15.105469 L 20.925781 14.527344 L 21.503906 14.527344 C 21.65625 14.527344 21.78125 14.40625 21.78125 14.253906 Z M 12.636719 17.132812 L 17.082031 18.601562 C 17.464844 18.730469 17.753906 19.027344 17.875 19.394531 L 20.375 17.789062 L 20.375 17.269531 L 18.121094 15.015625 C 17.371094 14.265625 17.371094 13.042969 18.121094 12.292969 L 18.121094 12.289062 C 18.144531 12.269531 18.167969 12.246094 18.191406 12.222656 C 17.84375 12.101562 17.476562 12.039062 17.105469 12.039062 L 14.570312 12.039062 C 12.765625 12.039062 11.296875 13.503906 11.296875 15.308594 L 11.296875 17.152344 C 11.726562 16.988281 12.179688 16.980469 12.636719 17.132812 Z M 15.835938 11.488281 C 17.5625 11.488281 18.964844 10.085938 18.964844 8.359375 C 18.964844 6.636719 17.5625 5.234375 15.835938 5.234375 C 14.113281 5.234375 12.710938 6.636719 12.710938 8.359375 C 12.710938 10.085938 14.113281 11.488281 15.835938 11.488281 Z M 15.835938 11.488281 " fill-opacity="1" fill-rule="nonzero"/></g><g clip-path="url(#41bd9622b0)"><path fill="#ab9c65" d="M 15 0 C 6.96875 0 0.484375 6.484375 0.484375 14.515625 C 0.484375 22.546875 6.96875 29.03125 15 29.03125 C 23.03125 29.03125 29.515625 22.546875 29.515625 14.515625 C 29.515625 6.484375 23.03125 0 15 0 Z M 15 27.742188 C 7.710938 27.742188 1.773438 21.804688 1.773438 14.515625 C 1.773438 7.226562 7.710938 1.289062 15 1.289062 C 22.289062 1.289062 28.226562 7.226562 28.226562 14.515625 C 28.226562 21.804688 22.289062 27.742188 15 27.742188 Z M 15 27.742188 " fill-opacity="1" fill-rule="nonzero"/></g></svg>