<svg xmlns="http://www.w3.org/2000/svg" xmlns:xlink="http://www.w3.org/1999/xlink" width="40" zoomAndPan="magnify" viewBox="0 0 30 30.000001" height="40" preserveAspectRatio="xMidYMid meet" version="1.0"><defs><clipPath id="fb38c100ed"><path d="M 2.878906 2.394531 L 26.832031 2.394531 L 26.832031 26.347656 L 2.878906 26.347656 Z M 2.878906 2.394531 " clip-rule="nonzero"/></clipPath><clipPath id="d4e2e18995"><path d="M 2.878906 1.886719 L 26.832031 1.886719 L 26.832031 25.839844 L 2.878906 25.839844 Z M 2.878906 1.886719 " clip-rule="nonzero"/></clipPath></defs><g clip-path="url(#fb38c100ed)"><path fill="#ab9c65" d="M 14.996094 26.632812 C 8.316406 26.632812 2.878906 21.195312 2.878906 14.511719 C 2.878906 7.832031 8.316406 2.394531 14.996094 2.394531 C 21.679688 2.394531 27.117188 7.832031 27.117188 14.511719 C 27.117188 21.195312 21.679688 26.632812 14.996094 26.632812 Z M 14.996094 3.40625 C 8.871094 3.40625 3.890625 8.386719 3.890625 14.511719 C 3.890625 20.640625 8.871094 25.621094 14.996094 25.621094 C 21.121094 25.621094 26.105469 20.640625 26.105469 14.511719 C 26.105469 8.386719 21.121094 3.40625 14.996094 3.40625 Z M 14.996094 3.40625 " fill-opacity="1" fill-rule="nonzero"/></g><path fill="#ab9c65" d="M 15.054688 18.046875 C 12.023438 18.046875 9.558594 15.554688 9.558594 12.496094 C 9.558594 9.433594 12.023438 6.941406 15.054688 6.941406 C 18.085938 6.941406 20.550781 9.433594 20.550781 12.496094 C 20.550781 15.554688 18.085938 18.046875 15.054688 18.046875 Z M 15.054688 7.949219 C 12.582031 7.949219 10.570312 9.988281 10.570312 12.496094 C 10.570312 15 12.582031 17.039062 15.054688 17.039062 C 17.53125 17.039062 19.542969 15 19.542969 12.496094 C 19.542969 9.988281 17.53125 7.949219 15.054688 7.949219 Z M 15.054688 7.949219 " fill-opacity="1" fill-rule="nonzero"/><path fill="#ab9c65" d="M 22.601562 23.601562 C 22.402344 23.601562 22.21875 23.488281 22.136719 23.296875 C 20.917969 20.460938 18.054688 18.554688 15.007812 18.554688 C 11.960938 18.554688 9.09375 20.460938 7.878906 23.296875 C 7.769531 23.550781 7.472656 23.671875 7.214844 23.5625 C 6.957031 23.449219 6.839844 23.152344 6.949219 22.898438 C 8.324219 19.695312 11.5625 17.542969 15.007812 17.542969 C 18.453125 17.542969 21.691406 19.695312 23.0625 22.898438 C 23.175781 23.152344 23.054688 23.449219 22.800781 23.5625 C 22.734375 23.589844 22.664062 23.601562 22.601562 23.601562 Z M 22.601562 23.601562 " fill-opacity="1" fill-rule="nonzero"/><g clip-path="url(#d4e2e18995)"><path fill="#ab9c65" d="M 14.996094 26.121094 C 8.316406 26.121094 2.878906 20.6875 2.878906 14.003906 C 2.878906 7.324219 8.316406 1.886719 14.996094 1.886719 C 21.679688 1.886719 27.117188 7.324219 27.117188 14.003906 C 27.117188 20.6875 21.679688 26.121094 14.996094 26.121094 Z M 14.996094 2.898438 C 8.871094 2.898438 3.890625 7.878906 3.890625 14.003906 C 3.890625 20.132812 8.871094 25.113281 14.996094 25.113281 C 21.121094 25.113281 26.105469 20.132812 26.105469 14.003906 C 26.105469 7.878906 21.121094 2.898438 14.996094 2.898438 Z M 14.996094 2.898438 " fill-opacity="1" fill-rule="nonzero"/></g><path fill="#ab9c65" d="M 15.054688 17.539062 C 12.023438 17.539062 9.558594 15.046875 9.558594 11.984375 C 9.558594 8.921875 12.023438 6.433594 15.054688 6.433594 C 18.085938 6.433594 20.550781 8.921875 20.550781 11.984375 C 20.550781 15.046875 18.085938 17.539062 15.054688 17.539062 Z M 15.054688 7.441406 C 12.582031 7.441406 10.570312 9.480469 10.570312 11.984375 C 10.570312 14.492188 12.582031 16.53125 15.054688 16.53125 C 17.53125 16.53125 19.542969 14.492188 19.542969 11.984375 C 19.542969 9.480469 17.53125 7.441406 15.054688 7.441406 Z M 15.054688 7.441406 " fill-opacity="1" fill-rule="nonzero"/><path fill="#ab9c65" d="M 22.601562 23.09375 C 22.402344 23.09375 22.21875 22.980469 22.136719 22.789062 C 20.917969 19.949219 18.054688 18.042969 15.007812 18.042969 C 11.960938 18.042969 9.09375 19.949219 7.878906 22.789062 C 7.769531 23.042969 7.472656 23.164062 7.214844 23.054688 C 6.957031 22.941406 6.839844 22.644531 6.949219 22.390625 C 8.324219 19.1875 11.5625 17.035156 15.007812 17.035156 C 18.453125 17.035156 21.691406 19.1875 23.0625 22.390625 C 23.175781 22.644531 23.054688 22.941406 22.800781 23.054688 C 22.734375 23.082031 22.664062 23.09375 22.601562 23.09375 Z M 22.601562 23.09375 " fill-opacity="1" fill-rule="nonzero"/></svg>